<svg width="17" height="22" viewBox="0 0 17 22" fill="none" xmlns="http://www.w3.org/2000/svg">
<path fill-rule="evenodd" clip-rule="evenodd" d="M10 6.07322C10 6.47461 10.3347 6.8 10.7482 6.8H17V20.964C17 21.4558 16.5881 21.8571 16.08 21.8571H0.920021C0.411804 21.8571 0 21.4584 0 20.9664V0.890724C0 0.39803 0.410295 0 0.91642 0H10V6.07322ZM11.5012 5.82857H17L11 0V5.34166C11 5.61072 11.2244 5.82857 11.5012 5.82857Z" fill="#689ABC"/>
<path d="M3.80859 9.5752H5.80811C6.71924 9.5752 7.37988 9.70557 7.79004 9.96631C8.20312 10.2241 8.40967 10.6357 8.40967 11.2012C8.40967 11.585 8.31885 11.8999 8.13721 12.146C7.9585 12.3921 7.71973 12.54 7.4209 12.5898V12.6338C7.82812 12.7246 8.12109 12.8945 8.2998 13.1436C8.48145 13.3926 8.57227 13.7236 8.57227 14.1367C8.57227 14.7227 8.35986 15.1797 7.93506 15.5078C7.51318 15.8359 6.93896 16 6.2124 16H3.80859V9.5752ZM5.1709 12.1196H5.96191C6.33105 12.1196 6.59766 12.0625 6.76172 11.9482C6.92871 11.834 7.01221 11.645 7.01221 11.3813C7.01221 11.1353 6.92139 10.9595 6.73975 10.854C6.56104 10.7456 6.27686 10.6914 5.88721 10.6914H5.1709V12.1196ZM5.1709 13.2007V14.875H6.05859C6.43359 14.875 6.71045 14.8032 6.88916 14.6597C7.06787 14.5161 7.15723 14.2964 7.15723 14.0005C7.15723 13.4673 6.77637 13.2007 6.01465 13.2007H5.1709Z" fill="white"/>
<path d="M14.0498 16H12.4941L11 13.5698L9.50586 16H8.04688L10.1782 12.6865L8.18311 9.5752H9.68604L11.0703 11.8867L12.4282 9.5752H13.896L11.8789 12.7612L14.0498 16Z" fill="white"/>
</svg>
