<svg width="39" height="28" viewBox="0 0 39 28" fill="none" xmlns="http://www.w3.org/2000/svg">
<path fill-rule="evenodd" clip-rule="evenodd" d="M0 1C0 0.447715 0.447715 0 1 0H38C38.5523 0 39 0.447715 39 1V4C39 4.55228 38.5523 5 38 5H1C0.447715 5 0 4.55228 0 4V1ZM0 13C0 12.4477 0.447715 12 1 12H38C38.5523 12 39 12.4477 39 13V16C39 16.5523 38.5523 17 38 17H1C0.447715 17 0 16.5523 0 16V13ZM1 23C0.447715 23 0 23.4477 0 24V27C0 27.5523 0.447715 28 1 28H38C38.5523 28 39 27.5523 39 27V24C39 23.4477 38.5523 23 38 23H1Z" fill="#689ABC"/>
</svg>
