<svg width="20" height="20" viewBox="0 0 20 20" fill="none" xmlns="http://www.w3.org/2000/svg">
<path d="M10 0C8.02219 0 6.08879 0.58649 4.4443 1.6853C2.79981 2.78412 1.51809 4.3459 0.761209 6.17316C0.00433278 8.00042 -0.1937 10.0111 0.192152 11.9509C0.578004 13.8907 1.53041 15.6725 2.92894 17.0711C4.32746 18.4696 6.10929 19.422 8.0491 19.8078C9.98891 20.1937 11.9996 19.9957 13.8268 19.2388C15.6541 18.4819 17.2159 17.2002 18.3147 15.5557C19.4135 13.9112 20 11.9778 20 10C20 8.68678 19.7413 7.38642 19.2388 6.17316C18.7362 4.95991 17.9997 3.85752 17.0711 2.92893C16.1425 2.00035 15.0401 1.26375 13.8268 0.761204C12.6136 0.258658 11.3132 0 10 0ZM14.6818 12.5523C14.9634 12.8351 15.1214 13.218 15.1214 13.617C15.1214 14.0161 14.9634 14.399 14.6818 14.6818C14.399 14.9634 14.0161 15.1214 13.617 15.1214C13.218 15.1214 12.8351 14.9634 12.5523 14.6818L10 12.1296L7.44774 14.6818C7.16489 14.9634 6.78205 15.1214 6.38296 15.1214C5.98387 15.1214 5.60102 14.9634 5.31817 14.6818C5.03662 14.399 4.87856 14.0161 4.87856 13.617C4.87856 13.218 5.03662 12.8351 5.31817 12.5523L7.87044 10L5.31817 7.44773C5.03662 7.16489 4.87856 6.78204 4.87856 6.38295C4.87856 5.98386 5.03662 5.60102 5.31817 5.31817C5.60102 5.03662 5.98387 4.87856 6.38296 4.87856C6.78205 4.87856 7.16489 5.03662 7.44774 5.31817L10 7.87043L12.5523 5.31817C12.8351 5.03662 13.218 4.87856 13.617 4.87856C14.0161 4.87856 14.399 5.03662 14.6818 5.31817C14.9634 5.60102 15.1214 5.98386 15.1214 6.38295C15.1214 6.78204 14.9634 7.16489 14.6818 7.44773L12.1296 10L14.6818 12.5523Z" fill="#689ABC"/>
</svg>
