<svg width="18" height="18" viewBox="0 0 18 18" fill="none" xmlns="http://www.w3.org/2000/svg">
<path fill-rule="evenodd" clip-rule="evenodd" d="M3.0829 0.528942C2.37764 -0.176314 1.2342 -0.176314 0.528942 0.528941C-0.176314 1.2342 -0.176314 2.37764 0.528941 3.0829L6.40304 8.957L0.528943 14.8311C-0.176313 15.5363 -0.176312 16.6798 0.528943 17.385C1.2342 18.0903 2.37764 18.0903 3.0829 17.385L8.957 11.511L14.8311 17.385C15.5363 18.0903 16.6798 18.0903 17.385 17.385C18.0903 16.6798 18.0903 15.5363 17.385 14.8311L11.5109 8.957L17.385 3.0829C18.0903 2.37764 18.0903 1.2342 17.385 0.528941C16.6798 -0.176314 15.5363 -0.176314 14.8311 0.528942L8.957 6.40304L3.0829 0.528942Z" fill="#E2E2E2"/>
</svg>
