<svg width="15" height="15" viewBox="0 0 15 15" fill="none" xmlns="http://www.w3.org/2000/svg">
<path fill-rule="evenodd" clip-rule="evenodd" d="M10.6312 9.80027L14.828 13.9972C15.0573 14.2266 15.0573 14.5986 14.828 14.8279C14.7132 14.9427 14.563 15 14.4126 15C14.2623 15 14.1121 14.9427 13.9973 14.8279L9.80146 10.6319C8.73131 11.5138 7.40071 11.9933 5.99583 11.9933C4.39756 11.9933 2.89472 11.3715 1.76384 10.2426C0.629342 9.11308 0.00290187 7.60836 1.00541e-05 6.00604C-0.00288176 4.40372 0.618136 2.89665 1.74866 1.76264C2.88207 0.626107 4.39051 0 5.99583 0C7.5941 0 9.09731 0.621408 10.2291 1.74963C12.4321 3.94607 12.5671 7.44388 10.6312 9.80027ZM1.00001 6.0075C1.00245 7.34348 1.52499 8.59831 2.47144 9.54032C3.4149 10.4818 4.66828 11 6.00097 11C7.34023 11 8.59848 10.4776 9.544 9.52926C11.49 7.57664 11.4847 4.40481 9.53182 2.45875C8.58798 1.51824 7.33404 1 6.00097 1C4.66191 1 3.40365 1.52199 2.45813 2.46981C1.51542 3.41519 0.997385 4.67151 1.00001 6.0075Z" fill="#365671"/>
</svg>
