<svg width="24" height="24" viewBox="0 0 24 24" fill="none" xmlns="http://www.w3.org/2000/svg">
<path fill-rule="evenodd" clip-rule="evenodd" d="M2.41421 0.292893C2.02369 -0.097631 1.39052 -0.0976311 1 0.292893L0.292893 1C-0.097631 1.39052 -0.0976314 2.02369 0.292893 2.41421L9.50671 11.628L0.292894 20.8419C-0.0976304 21.2324 -0.09763 21.8655 0.292894 22.2561L1 22.9632C1.39053 23.3537 2.02369 23.3537 2.41421 22.9632L11.628 13.7494L20.8419 22.9632C21.2324 23.3537 21.8655 23.3537 22.2561 22.9632L22.9632 22.2561C23.3537 21.8655 23.3537 21.2324 22.9632 20.8419L13.7494 11.628L22.9632 2.41421C23.3537 2.02369 23.3537 1.39052 22.9632 1L22.2561 0.292893C21.8655 -0.0976311 21.2324 -0.097631 20.8419 0.292893L11.628 9.50671L2.41421 0.292893Z" fill="#689ABC"/>
</svg>
