<svg width="61" height="71" viewBox="0 0 61 71" fill="none" xmlns="http://www.w3.org/2000/svg">
<path d="M53.631 71H7.36855C3.45468 71 0.268555 67.8139 0.268555 63.9V7.1C0.268555 3.18613 3.45468 0 7.36855 0H41.9781C42.3538 0 42.7147 0.150875 42.981 0.417125L60.3138 17.75C60.5801 18.0162 60.731 18.3772 60.731 18.7529V63.9C60.731 67.8139 57.5448 71 53.631 71ZM7.36855 2.84C5.01964 2.84 3.10855 4.75108 3.10855 7.1V63.9C3.10855 66.2489 5.01964 68.16 7.36855 68.16H53.628C55.9769 68.16 57.888 66.2489 57.888 63.9V19.3416L41.3894 2.84H7.36855Z" fill="#689ABC"/>
<path d="M59.311 20.1729H41.9781C41.1941 20.1729 40.5581 19.5368 40.5581 18.7529V1.42C40.5581 0.636042 41.1941 0 41.9781 0C42.7621 0 43.3981 0.636042 43.3981 1.42V17.3329H59.311C60.0949 17.3329 60.731 17.9689 60.731 18.7529C60.731 19.5368 60.0949 20.1729 59.311 20.1729Z" fill="#689ABC"/>
<path fill-rule="evenodd" clip-rule="evenodd" d="M43.4 39.5C43.4 46.6245 37.6245 52.4 30.5 52.4C27.4472 52.4 24.6421 51.3396 22.433 49.567L40.567 31.433C42.3396 33.6421 43.4 36.4472 43.4 39.5ZM20.5782 47.7448L38.7448 29.5782C36.5093 27.7185 33.6353 26.6 30.5 26.6C23.3755 26.6 17.6 32.3755 17.6 39.5C17.6 42.6353 18.7185 45.5093 20.5782 47.7448ZM46 39.5C46 48.0604 39.0604 55 30.5 55C21.9396 55 15 48.0604 15 39.5C15 30.9396 21.9396 24 30.5 24C39.0604 24 46 30.9396 46 39.5Z" fill="#689ABC"/>
</svg>
