<svg width="17" height="17" viewBox="0 0 17 17" fill="none" xmlns="http://www.w3.org/2000/svg">
<path fill-rule="evenodd" clip-rule="evenodd" d="M12.0487 11.107L16.805 15.8635C17.065 16.1235 17.065 16.545 16.805 16.805C16.675 16.9351 16.5048 17 16.3343 17C16.1639 17 15.9937 16.9351 15.8636 16.805L11.1083 12.0495C9.89548 13.0489 8.38747 13.5924 6.79528 13.5924C4.9839 13.5924 3.28068 12.8877 1.99902 11.6082C0.713254 10.3282 0.00328879 8.62281 1.13946e-05 6.80684C-0.003266 4.99088 0.700554 3.28287 1.98181 1.99766C3.26634 0.709588 4.97591 0 6.79528 0C8.60665 0 10.3103 0.704262 11.593 1.98291C14.0897 4.47221 14.2427 8.4364 12.0487 11.107ZM1.33166 6.80438C1.33432 8.26453 1.9052 9.63598 2.93922 10.6655C3.96996 11.6945 5.33929 12.2609 6.79527 12.2609C8.25843 12.2609 9.63309 11.69 10.6661 10.6534C12.7921 8.51936 12.7863 5.05274 10.6528 2.92582C9.62162 1.8979 8.25167 1.3315 6.79527 1.3315C5.33233 1.3315 3.95767 1.902 2.92467 2.93791C1.89475 3.97115 1.32879 5.34424 1.33166 6.80438Z" fill="white"/>
</svg>
