<svg width="17" height="16" viewBox="0 0 17 16" fill="none" xmlns="http://www.w3.org/2000/svg">
<path fill-rule="evenodd" clip-rule="evenodd" d="M2.45556 16H14.5444C15.9006 16 17 15.004 17 13.7754V3.85027C17 2.62166 15.9006 1.62567 14.5444 1.62567H13.2222V0.855615C13.2222 0.383072 12.7994 0 12.2778 0C11.7562 0 11.3333 0.383072 11.3333 0.855615V1.62567H5.66667V0.855615C5.66667 0.383072 5.24382 0 4.72222 0C4.20062 0 3.77778 0.383072 3.77778 0.855615V1.62567H2.45556C1.09939 1.62567 0 2.62166 0 3.85027V13.7754C0 15.004 1.09939 16 2.45556 16ZM14.5444 14.2888H2.45556C2.14259 14.2888 1.88889 14.0589 1.88889 13.7754V8.29947H15.1111V13.7754C15.1111 14.0589 14.8574 14.2888 14.5444 14.2888ZM3.77778 3.3369H2.45556C2.14259 3.3369 1.88889 3.56674 1.88889 3.85027V6.58823H15.1111V3.85027C15.1111 3.56674 14.8574 3.3369 14.5444 3.3369H13.2222V3.93583C13.2222 4.40837 12.7994 4.79144 12.2778 4.79144C11.7562 4.79144 11.3333 4.40837 11.3333 3.93583V3.3369H5.66667V3.93583C5.66667 4.40837 5.24382 4.79144 4.72222 4.79144C4.20062 4.79144 3.77778 4.40837 3.77778 3.93583V3.3369Z" fill="#49495B"/>
</svg>
