<svg width="17" height="22" viewBox="0 0 17 22" fill="none" xmlns="http://www.w3.org/2000/svg">
<path fill-rule="evenodd" clip-rule="evenodd" d="M10 6.07322C10 6.47461 10.3347 6.8 10.7482 6.8H17V20.964C17 21.4558 16.5881 21.8571 16.08 21.8571H0.920021C0.411804 21.8571 0 21.4584 0 20.9664V0.890724C0 0.39803 0.410295 0 0.91642 0H10V6.07322ZM11.5012 5.82857H17L11 0V5.34166C11 5.61072 11.2244 5.82857 11.5012 5.82857Z" fill="#689ABC"/>
<path fill-rule="evenodd" clip-rule="evenodd" d="M7.89307 16H6.53516V10.709H4.1709V16H2.80859V9.5752H7.89307V16ZM7.95 14.8662H8.44658C8.87139 14.0166 9.20683 13.1677 9.45293 12.3196C9.69902 11.4714 9.88213 10.5566 10.0022 9.5752H13.7464V14.8662H14.6033V17.8721H13.2894V16H9.26396V17.8721H7.95V14.8662ZM11.0833 10.709C10.9896 11.3799 10.8335 12.0903 10.6153 12.8403C10.397 13.5903 10.1517 14.2656 9.8792 14.8662H12.3885V10.709H11.0833Z" fill="white"/>
</svg>
