<svg width="33" height="33" viewBox="0 0 33 33" fill="none" xmlns="http://www.w3.org/2000/svg">
<path fill-rule="evenodd" clip-rule="evenodd" d="M5.14972 0.87868C4.75919 0.488155 4.12603 0.488155 3.7355 0.878679L0.87868 3.7355C0.488155 4.12603 0.488157 4.75919 0.878681 5.14972L12.1305 16.4015L0.878681 27.6533C0.488157 28.0438 0.488156 28.677 0.87868 29.0675L3.7355 31.9243C4.12603 32.3149 4.75919 32.3149 5.14972 31.9243L16.4015 20.6726L27.6533 31.9243C28.0438 32.3149 28.677 32.3149 29.0675 31.9243L31.9243 29.0675C32.3149 28.677 32.3149 28.0438 31.9243 27.6533L20.6726 16.4015L31.9243 5.14972C32.3149 4.75919 32.3149 4.12603 31.9243 3.7355L29.0675 0.878679C28.677 0.488155 28.0438 0.488155 27.6533 0.87868L16.4015 12.1305L5.14972 0.87868Z" fill="#689ABC"/>
</svg>
