<svg width="24" height="24" viewBox="0 0 24 24" fill="none" xmlns="http://www.w3.org/2000/svg">
<path fill-rule="evenodd" clip-rule="evenodd" d="M12 23C18.0751 23 23 18.0751 23 12C23 5.92487 18.0751 1 12 1C5.92487 1 1 5.92487 1 12C1 18.0751 5.92487 23 12 23Z" stroke="#689ABC" stroke-width="1.7"/>
<path d="M12 9C12.5523 9 13 8.55228 13 8C13 7.44772 12.5523 7 12 7C11.4477 7 11 7.44772 11 8C11 8.55228 11.4477 9 12 9Z" fill="#689ABC"/>
<path d="M12 11C11.4477 11 11 11.3853 11 11.8607V17.1393C11 17.6147 11.4477 18 12 18C12.5523 18 13 17.6147 13 17.1393V11.8607C13 11.3853 12.5523 11 12 11Z" fill="#689ABC"/>
</svg>
