<svg width="17" height="22" viewBox="0 0 17 22" fill="none" xmlns="http://www.w3.org/2000/svg">
<path fill-rule="evenodd" clip-rule="evenodd" d="M10 6.07322C10 6.47461 10.3347 6.8 10.7482 6.8H17V20.964C17 21.4558 16.5881 21.8571 16.08 21.8571H0.920021C0.411804 21.8571 0 21.4584 0 20.9664V0.890724C0 0.39803 0.410295 0 0.91642 0H10V6.07322ZM11.5012 5.82857H17L11 0V5.34166C11 5.61072 11.2244 5.82857 11.5012 5.82857Z" fill="#689ABC"/>
<path fill-rule="evenodd" clip-rule="evenodd" d="M9.4159 12.9407C9.4159 14.0561 9.13935 14.9134 8.58626 15.5126C8.03316 16.1117 7.2404 16.4113 6.20795 16.4113C5.1755 16.4113 4.38274 16.1117 3.82964 15.5126C3.27654 14.9134 3 14.053 3 12.9315C3 11.8099 3.27731 10.9534 3.83195 10.3619C4.38658 9.77036 5.18165 9.47461 6.21717 9.47461C7.25269 9.47461 8.04468 9.77266 8.59317 10.3688C9.14166 10.9649 9.4159 11.8222 9.4159 12.9407ZM4.49796 12.9407C4.49796 13.6935 4.64085 14.2604 4.92661 14.6414C5.21238 15.0225 5.63949 15.213 6.20795 15.213C7.34794 15.213 7.91793 14.4555 7.91793 12.9407C7.91793 11.4227 7.35102 10.6638 6.21717 10.6638C5.64871 10.6638 5.22006 10.855 4.93122 11.2376C4.64238 11.6202 4.49796 12.1878 4.49796 12.9407ZM14.2322 9.58062V10.7606H11.4022V16.3192H9.9734V9.58062H14.2322Z" fill="white"/>
</svg>
