<svg width="17" height="22" viewBox="0 0 17 22" fill="none" xmlns="http://www.w3.org/2000/svg">
<path fill-rule="evenodd" clip-rule="evenodd" d="M10 6.07322C10 6.47461 10.3347 6.8 10.7482 6.8H17V20.964C17 21.4558 16.5881 21.8571 16.08 21.8571H0.920021C0.411804 21.8571 0 21.4584 0 20.9664V0.890724C0 0.39803 0.410295 0 0.91642 0H10V6.07322ZM11.5012 5.82857H17L11 0V5.34166C11 5.61072 11.2244 5.82857 11.5012 5.82857Z" fill="#689ABC"/>
<path d="M3.80859 9.57471H5.03467V12.6772L5.01709 13.5078L4.97314 14.4526H4.99951L7.96582 9.57471H9.59619V15.9995H8.3833V12.9146C8.3833 12.5015 8.40967 11.8892 8.4624 11.0776H8.42725L5.44775 15.9995H3.80859V9.57471Z" fill="white"/>
<path d="M12.9468 10.6162C12.4341 10.6162 12.0371 10.8096 11.7559 11.1963C11.4746 11.5801 11.334 12.1162 11.334 12.8047C11.334 14.2373 11.8716 14.9536 12.9468 14.9536C13.3979 14.9536 13.9443 14.8408 14.5859 14.6152V15.7578C14.0586 15.9775 13.4697 16.0874 12.8193 16.0874C11.8848 16.0874 11.1699 15.8047 10.6748 15.2393C10.1797 14.6709 9.93213 13.8564 9.93213 12.7959C9.93213 12.1279 10.0537 11.5435 10.2969 11.0425C10.54 10.5386 10.8887 10.1533 11.3428 9.88672C11.7998 9.61719 12.3345 9.48242 12.9468 9.48242C13.5708 9.48242 14.1978 9.6333 14.8276 9.93506L14.3882 11.0425C14.1479 10.9282 13.9062 10.8286 13.6631 10.7437C13.4199 10.6587 13.1812 10.6162 12.9468 10.6162Z" fill="white"/>
</svg>
