<svg width="15" height="13" viewBox="0 0 15 13" fill="none" xmlns="http://www.w3.org/2000/svg">
<path d="M13.8457 1.10745C12.3066 -0.369148 9.80362 -0.369148 8.26454 1.10743L0.823028 8.24688C-0.274352 9.29969 -0.274334 11.0187 0.823028 12.0715C1.92041 13.1244 3.7122 13.1244 4.80956 12.0715L12.2511 4.93214C12.9067 4.30308 12.9067 3.26637 12.2511 2.63731C11.5954 2.00827 10.5148 2.00827 9.85915 2.63731L3.21494 9.01181C3.06898 9.14776 3.01067 9.3486 3.06235 9.53736C3.11403 9.72613 3.26769 9.87355 3.46445 9.92314C3.6612 9.97272 3.87054 9.91677 4.01224 9.77674L10.6565 3.40226C10.8842 3.18376 11.226 3.18374 11.4538 3.40226C11.6815 3.62076 11.6815 3.94869 11.4538 4.16719L4.01226 11.3066C3.34279 11.9489 2.2898 11.9489 1.62035 11.3066C0.950856 10.6643 0.950855 9.65407 1.62033 9.01179L9.06185 1.87238C10.173 0.806338 11.9372 0.806338 13.0484 1.87238C14.1596 2.93843 14.1595 4.63103 13.0484 5.69707L6.40417 12.0715C6.25862 12.2076 6.20061 12.4082 6.25235 12.5968C6.30408 12.7853 6.45755 12.9325 6.65405 12.9822C6.85056 13.0318 7.0597 12.9761 7.20149 12.8365L13.8457 6.46201C15.3848 4.98542 15.3848 2.58405 13.8457 1.10745Z" fill="#689ABC"/>
</svg>
