<svg width="13" height="13" viewBox="0 0 13 13" fill="none" xmlns="http://www.w3.org/2000/svg">
<path fill-rule="evenodd" clip-rule="evenodd" d="M2.22174 0.38119C1.71349 -0.127063 0.889443 -0.127063 0.38119 0.38119C-0.127063 0.889443 -0.127063 1.71349 0.381191 2.22174L4.61445 6.455L0.381191 10.6883C-0.127063 11.1965 -0.127063 12.0206 0.38119 12.5288C0.889444 13.0371 1.71349 13.0371 2.22174 12.5288L6.455 8.29555L10.6883 12.5288C11.1965 13.0371 12.0206 13.0371 12.5288 12.5288C13.0371 12.0206 13.0371 11.1965 12.5288 10.6883L8.29555 6.455L12.5288 2.22174C13.0371 1.71349 13.0371 0.889443 12.5288 0.38119C12.0206 -0.127063 11.1965 -0.127063 10.6883 0.38119L6.455 4.61445L2.22174 0.38119Z" fill="#FF5E52"/>
</svg>
