<svg width="23" height="23" viewBox="0 0 23 23" fill="none" xmlns="http://www.w3.org/2000/svg">
<path fill-rule="evenodd" clip-rule="evenodd" d="M19.7927 22.181L22.4455 19.5282C23.2384 18.7352 23.1721 17.4823 22.3037 16.7718L18.0031 13.2531C17.1829 12.582 15.9388 12.6415 15.1899 13.3904L13.5139 15.0664C13.3052 15.2752 12.8657 15.3324 12.5613 15.1576C12.5338 15.1441 12.4687 15.1098 12.3705 15.0538C12.199 14.9559 12.0035 14.8348 11.7885 14.6898C11.167 14.2706 10.5213 13.7467 9.8872 13.1126C9.25309 12.4785 8.72972 11.8335 8.31138 11.2133C8.16669 10.9988 8.04594 10.8038 7.94837 10.6328C7.89257 10.535 7.85837 10.4702 7.81287 10.3837C7.66415 10.1357 7.72199 9.69728 7.93347 9.4858L9.60946 7.80975C10.3586 7.06062 10.4184 5.8174 9.74674 4.99645L6.2282 0.695726C5.51844 -0.171818 4.26404 -0.238217 3.4719 0.553949L0.819108 3.20684C-1.54773 5.57376 1.56311 13.1602 5.70137 17.2986C9.83925 21.4366 17.4262 24.5476 19.7927 22.181ZM8.49337 6.69362L6.81737 8.36967C6.10611 9.08096 5.93902 10.2931 6.44127 11.165C6.54259 11.3671 6.7276 11.6879 7.00286 12.096C7.47564 12.7969 8.06242 13.5201 8.77111 14.2288C9.47983 14.9375 10.2038 15.5248 10.9059 15.9984C11.3177 16.2761 11.6409 16.4623 11.8432 16.5634C12.7151 17.054 13.9219 16.8908 14.63 16.1826L16.306 14.5065C16.4805 14.332 16.8099 14.3163 17.0036 14.4748L21.3042 17.9934C21.4516 18.114 21.4604 18.281 21.3294 18.412L18.6766 21.0649C17.1924 22.5492 10.398 19.7632 6.81746 16.1825C3.23655 12.6015 0.450689 5.80753 1.9352 4.32297L4.588 1.67008C4.71824 1.53983 4.88673 1.54875 5.00657 1.69524L8.52512 5.99596C8.68404 6.19021 8.66823 6.51875 8.49337 6.69362Z" fill="#689ABC"/>
</svg>
