<svg width="107" height="29" viewBox="0 0 107 29" fill="none" xmlns="http://www.w3.org/2000/svg">
<path fill-rule="evenodd" clip-rule="evenodd" d="M11.3737 23C7.67011 23 4.84863 22.0032 2.90917 20.0097C0.969713 18.0161 0 15.1849 0 11.5159C0 9.69202 0.295845 8.06432 0.887543 6.63278C1.47924 5.20124 2.29008 3.9924 3.32007 3.00622C4.35006 2.02005 5.57727 1.27248 7.00173 0.763485C8.42619 0.254493 9.97116 0 11.6367 0C12.6009 0 13.4775 0.0689251 14.2664 0.206777C15.0554 0.34463 15.7457 0.503687 16.3374 0.683956C16.9291 0.864224 17.4221 1.04979 17.8166 1.24066C18.2111 1.43154 18.496 1.57999 18.6713 1.68603L17.192 5.69433C16.4908 5.33379 15.6745 5.02628 14.7431 4.77178C13.8117 4.51729 12.7543 4.39004 11.5709 4.39004C10.782 4.39004 10.0095 4.51729 9.25346 4.77178C8.4974 5.02628 7.82901 5.43453 7.24827 5.99654C6.66753 6.55856 6.20185 7.28492 5.85121 8.17566C5.50058 9.06639 5.32526 10.148 5.32526 11.4205C5.32526 12.4385 5.44031 13.3875 5.67042 14.2676C5.90052 15.1478 6.27307 15.9059 6.78806 16.5422C7.30306 17.1784 7.97693 17.6821 8.80969 18.0533C9.64245 18.4244 10.6505 18.61 11.8339 18.61C12.579 18.61 13.2474 18.5675 13.8391 18.4827C14.4308 18.3979 14.9567 18.2971 15.417 18.1805C15.8772 18.0639 16.2826 17.9313 16.6332 17.7828C16.9839 17.6344 17.3016 17.4965 17.5865 17.3693L19 21.3458C18.2768 21.7699 17.2578 22.1517 15.9429 22.491C14.628 22.8303 13.105 23 11.3737 23ZM40 11.5318C40 13.5649 39.7053 15.3016 39.1159 16.7417C38.5265 18.1819 37.7228 19.3679 36.7047 20.2997C35.6867 21.2316 34.4918 21.9146 33.1201 22.3488C31.7484 22.7829 30.291 23 28.7479 23C27.269 23 25.9134 22.8412 24.681 22.5235C23.4487 22.2058 22.2217 21.7399 21 21.1257L22.6074 17.1547C22.9075 17.2818 23.2611 17.4353 23.6684 17.6153C24.0756 17.7954 24.531 17.9648 25.0347 18.1236C25.5384 18.2825 26.0956 18.4148 26.7064 18.5207C27.3173 18.6266 27.9656 18.6796 28.6514 18.6796C30.3661 18.6796 31.7377 18.2401 32.7665 17.3612C33.7953 16.4823 34.4382 15.1851 34.6954 13.4696H25.3722V9.27624H34.599C34.3418 7.58194 33.7149 6.33242 32.7183 5.52762C31.7217 4.72283 30.3661 4.32044 28.6514 4.32044C27.3869 4.32044 26.2296 4.47399 25.1794 4.78108C24.1292 5.08817 23.304 5.38996 22.7039 5.68646L21.225 1.81077C22.4467 1.17541 23.7059 0.71478 25.0025 0.428867C26.2992 0.142954 27.5798 0 28.8443 0C30.4089 0 31.8663 0.232963 33.2166 0.698895C34.5668 1.16483 35.7456 1.86901 36.753 2.81146C37.7603 3.75392 38.5533 4.9505 39.132 6.40124C39.7107 7.85199 40 9.56215 40 11.5318ZM40 18.5296H43.3248C44.1449 17.1203 44.7877 15.7221 45.2532 14.3349C45.7187 12.9476 46.0678 11.5384 46.3005 10.1071C46.5332 8.67577 46.6773 7.20046 46.7327 5.68109C46.7882 4.16172 46.8159 2.56531 46.8159 0.8918V0H62.0435V18.5296H66L65.7887 27.1327L61.0128 29V22.8895H44.9872V27.1327L40 29V18.5296ZM51.5271 4C51.4751 5.09091 51.5577 8.27588 50.9933 11.0787C50.4288 13.8816 50.0559 16.0909 49.406 17H57.6155V4H51.5271ZM81.0825 22C80.6347 21.2804 80.1069 20.5026 79.4992 19.6667C78.8914 18.8307 78.2304 17.9947 77.516 17.1587C76.8016 16.3227 76.0606 15.5185 75.2929 14.746C74.5252 13.9735 73.7576 13.291 72.9899 12.6984V22H68V0H72.9899V8.31746C74.2907 6.96296 75.5968 5.55027 76.9082 4.07937C78.2197 2.60846 79.4405 1.24868 80.5707 0H86.4882C84.9742 1.77779 83.4548 3.49206 81.9301 5.14286C80.4054 6.79366 78.8008 8.45502 77.1162 10.127C78.8861 11.5873 80.5974 13.3227 82.25 15.3333C83.9026 17.3439 85.486 19.5661 87 22H81.0825ZM107 0V22H102.074V4.19048H93.9263V22H89V0H107Z" fill="#3D4245"/>
</svg>
